<svg xmlns="http://www.w3.org/2000/svg" version="1.1" width="463" height="183">
<path d="M 2.878906 13.319336 L 2.878906 6.412109 L 6.729980 6.412109 L 6.729980 7.335938 L 3.738281 7.335938 L 3.738281 13.319336 Z " fill="rgb(0, 0, 0)" fill-opacity="1.000000" />
<path d="M 2.878906 26.319336 L 2.878906 12.300781 L 3.738281 12.300781 L 3.738281 26.319336 Z " fill="rgb(0, 0, 0)" fill-opacity="1.000000" />
<path d="M 2.878906 39.319336 L 2.878906 25.300781 L 3.738281 25.300781 L 3.738281 39.319336 Z " fill="rgb(0, 0, 0)" fill-opacity="1.000000" />
<path d="M 2.878906 52.319336 L 2.878906 38.300781 L 3.738281 38.300781 L 3.738281 52.319336 Z " fill="rgb(0, 0, 0)" fill-opacity="1.000000" />
<path d="M 2.878906 65.319336 L 2.878906 51.300781 L 3.738281 51.300781 L 3.738281 65.319336 Z " fill="rgb(0, 0, 0)" fill-opacity="1.000000" />
<path d="M 2.878906 78.319336 L 2.878906 64.300781 L 3.738281 64.300781 L 3.738281 78.319336 Z " fill="rgb(0, 0, 0)" fill-opacity="1.000000" />
<path d="M 2.878906 91.319336 L 2.878906 77.300781 L 3.738281 77.300781 L 3.738281 91.319336 Z " fill="rgb(0, 0, 0)" fill-opacity="1.000000" />
<path d="M 2.878906 98.335938 L 2.878906 90.300781 L 3.738281 90.300781 L 3.738281 97.412109 L 6.729980 97.412109 L 6.729980 98.335938 Z " fill="rgb(0, 0, 0)" fill-opacity="1.000000" />
<path d="M 205.878906 156.319336 L 205.878906 149.412109 L 209.729980 149.412109 L 209.729980 150.335938 L 206.738281 150.335938 L 206.738281 156.319336 Z " fill="rgb(0, 0, 0)" fill-opacity="1.000000" />
<path d="M 205.878906 169.319336 L 205.878906 155.300781 L 206.738281 155.300781 L 206.738281 169.319336 Z " fill="rgb(0, 0, 0)" fill-opacity="1.000000" />
<path d="M 205.878906 176.335938 L 205.878906 168.300781 L 206.738281 168.300781 L 206.738281 175.412109 L 209.729980 175.412109 L 209.729980 176.335938 Z " fill="rgb(0, 0, 0)" fill-opacity="1.000000" />
<path d="M 209.892578 176.335938 L 209.892578 175.412109 L 216.729980 175.412109 L 216.729980 176.335938 Z " fill="rgb(0, 0, 0)" fill-opacity="1.000000" />
<path d="M 216.892578 176.335938 L 216.892578 175.412109 L 223.729980 175.412109 L 223.729980 176.335938 Z " fill="rgb(0, 0, 0)" fill-opacity="1.000000" />
<path d="M 223.892578 176.335938 L 223.892578 175.412109 L 230.729980 175.412109 L 230.729980 176.335938 Z " fill="rgb(0, 0, 0)" fill-opacity="1.000000" />
<path d="M 230.892578 176.335938 L 230.892578 175.412109 L 237.729980 175.412109 L 237.729980 176.335938 Z " fill="rgb(0, 0, 0)" fill-opacity="1.000000" />
<path d="M 237.892578 176.335938 L 237.892578 175.412109 L 240.878906 175.412109 L 240.878906 168.300781 L 241.738281 168.300781 L 241.738281 176.335938 Z " fill="rgb(0, 0, 0)" fill-opacity="1.000000" />
<path d="M 261.878906 176.335938 L 261.878906 168.300781 L 262.738281 168.300781 L 262.738281 175.412109 L 265.729980 175.412109 L 265.729980 176.335938 Z " fill="rgb(0, 0, 0)" fill-opacity="1.000000" />
<path d="M 265.892578 176.335938 L 265.892578 175.412109 L 272.729980 175.412109 L 272.729980 176.335938 Z " fill="rgb(0, 0, 0)" fill-opacity="1.000000" />
<path d="M 272.892578 176.335938 L 272.892578 175.412109 L 279.729980 175.412109 L 279.729980 176.335938 Z " fill="rgb(0, 0, 0)" fill-opacity="1.000000" />
<path d="M 279.892578 176.335938 L 279.892578 175.412109 L 286.729980 175.412109 L 286.729980 176.335938 Z " fill="rgb(0, 0, 0)" fill-opacity="1.000000" />
<path d="M 286.892578 176.335938 L 286.892578 175.412109 L 293.729980 175.412109 L 293.729980 176.335938 Z " fill="rgb(0, 0, 0)" fill-opacity="1.000000" />
<path d="M 293.892578 176.335938 L 293.892578 175.412109 L 296.878906 175.412109 L 296.878906 168.300781 L 297.738281 168.300781 L 297.738281 176.335938 Z " fill="rgb(0, 0, 0)" fill-opacity="1.000000" />
<path d="M 317.878906 176.335938 L 317.878906 168.300781 L 318.738281 168.300781 L 318.738281 175.412109 L 321.729980 175.412109 L 321.729980 176.335938 Z " fill="rgb(0, 0, 0)" fill-opacity="1.000000" />
<path d="M 321.892578 176.335938 L 321.892578 175.412109 L 328.729980 175.412109 L 328.729980 176.335938 Z " fill="rgb(0, 0, 0)" fill-opacity="1.000000" />
<path d="M 328.892578 176.335938 L 328.892578 175.412109 L 335.729980 175.412109 L 335.729980 176.335938 Z " fill="rgb(0, 0, 0)" fill-opacity="1.000000" />
<path d="M 335.892578 176.335938 L 335.892578 175.412109 L 342.729980 175.412109 L 342.729980 176.335938 Z " fill="rgb(0, 0, 0)" fill-opacity="1.000000" />
<path d="M 342.892578 176.335938 L 342.892578 175.412109 L 349.729980 175.412109 L 349.729980 176.335938 Z " fill="rgb(0, 0, 0)" fill-opacity="1.000000" />
<path d="M 349.892578 176.335938 L 349.892578 175.412109 L 352.878906 175.412109 L 352.878906 168.300781 L 353.738281 168.300781 L 353.738281 176.335938 Z " fill="rgb(0, 0, 0)" fill-opacity="1.000000" />
<path d="M 366.878906 176.335938 L 366.878906 168.300781 L 367.738281 168.300781 L 367.738281 175.412109 L 370.729980 175.412109 L 370.729980 176.335938 Z " fill="rgb(254, 255, 255)" fill-opacity="1.000000" />
<path d="M 370.892578 176.335938 L 370.892578 175.412109 L 377.729980 175.412109 L 377.729980 176.335938 Z " fill="rgb(254, 255, 255)" fill-opacity="1.000000" />
<path d="M 377.892578 176.335938 L 377.892578 175.412109 L 384.729980 175.412109 L 384.729980 176.335938 Z " fill="rgb(254, 255, 255)" fill-opacity="1.000000" />
<path d="M 384.892578 176.335938 L 384.892578 175.412109 L 391.729980 175.412109 L 391.729980 176.335938 Z " fill="rgb(254, 255, 255)" fill-opacity="1.000000" />
<path d="M 391.892578 176.335938 L 391.892578 175.412109 L 398.729980 175.412109 L 398.729980 176.335938 Z " fill="rgb(254, 255, 255)" fill-opacity="1.000000" />
<path d="M 398.892578 176.335938 L 398.892578 175.412109 L 401.878906 175.412109 L 401.878906 168.300781 L 402.738281 168.300781 L 402.738281 176.335938 Z " fill="rgb(254, 255, 255)" fill-opacity="1.000000" />
<path d="M 422.878906 176.335938 L 422.878906 168.300781 L 423.738281 168.300781 L 423.738281 175.412109 L 426.729980 175.412109 L 426.729980 176.335938 Z " fill="rgb(0, 0, 0)" fill-opacity="1.000000" />
<path d="M 426.892578 176.335938 L 426.892578 175.412109 L 433.729980 175.412109 L 433.729980 176.335938 Z " fill="rgb(0, 0, 0)" fill-opacity="1.000000" />
<path d="M 433.892578 176.335938 L 433.892578 175.412109 L 440.729980 175.412109 L 440.729980 176.335938 Z " fill="rgb(0, 0, 0)" fill-opacity="1.000000" />
<path d="M 440.892578 176.335938 L 440.892578 175.412109 L 447.729980 175.412109 L 447.729980 176.335938 Z " fill="rgb(0, 0, 0)" fill-opacity="1.000000" />
<path d="M 447.892578 176.335938 L 447.892578 175.412109 L 454.729980 175.412109 L 454.729980 176.335938 Z " fill="rgb(0, 0, 0)" fill-opacity="1.000000" />
<path d="M 454.892578 176.335938 L 454.892578 175.412109 L 457.878906 175.412109 L 457.878906 168.300781 L 458.738281 168.300781 L 458.738281 176.335938 Z " fill="rgb(0, 0, 0)" fill-opacity="1.000000" />
<path d="M 211.981934 161.955566 L 211.981934 165.108398 L 213.265625 165.108398 Q 214.210938 165.108398 214.613770 164.778076 Q 215.016602 164.447754 215.016602 163.690430 Q 215.016602 162.691406 214.592285 162.323486 Q 214.167969 161.955566 213.265625 161.955566 Z M 211.981934 158.872559 L 211.981934 161.074707 L 213.244141 161.074707 Q 214.028320 161.074707 214.380127 160.773926 Q 214.731934 160.473145 214.731934 160.016602 Q 214.731934 159.409668 214.385498 159.141113 Q 214.039062 158.872559 213.244141 158.872559 Z M 210.891602 157.980957 L 213.265625 157.980957 Q 214.495605 157.980957 215.161621 158.512695 Q 215.827637 159.044434 215.827637 160.016602 Q 215.827637 160.537598 215.475830 160.961914 Q 215.124023 161.386230 214.420410 161.493652 Q 215.209961 161.611816 215.658447 162.167725 Q 216.106934 162.723633 216.106934 163.797852 Q 216.106934 164.888184 215.392578 165.444092 Q 214.678223 166.000000 213.265625 166.000000 L 210.891602 166.000000 Z " fill="rgb(0, 0, 0)" fill-opacity="1.000000" />
<path d="M 218.047363 163.722656 L 218.047363 159.995117 L 219.035645 159.995117 L 219.035645 163.722656 Q 219.035645 164.533691 219.322998 164.915039 Q 219.610352 165.296387 220.211914 165.296387 Q 220.910156 165.296387 221.280762 164.804932 Q 221.651367 164.313477 221.651367 163.395020 L 221.651367 159.995117 L 222.645020 159.995117 L 222.645020 166.000000 L 221.651367 166.000000 L 221.651367 165.097656 Q 221.388184 165.618652 220.934326 165.887207 Q 220.480469 166.155762 219.873535 166.155762 Q 218.949707 166.155762 218.498535 165.551514 Q 218.047363 164.947266 218.047363 163.722656 Z " fill="rgb(0, 0, 0)" fill-opacity="1.000000" />
<path d="M 227.861816 163.824707 Q 227.861816 164.490723 228.106201 164.829102 Q 228.350586 165.167480 228.828613 165.167480 L 229.983398 165.167480 L 229.983398 166.000000 L 228.731934 166.000000 Q 227.845703 166.000000 227.359619 165.433350 Q 226.873535 164.866699 226.873535 163.824707 L 226.873535 158.383789 L 225.289062 158.383789 L 225.289062 157.610352 L 227.861816 157.610352 Z " fill="rgb(0, 0, 0)" fill-opacity="1.000000" />
<path d="M 235.930664 162.997559 Q 235.930664 161.848145 235.565430 161.262695 Q 235.200195 160.677246 234.485840 160.677246 Q 233.766113 160.677246 233.395508 161.265381 Q 233.024902 161.853516 233.024902 162.997559 Q 233.024902 164.136230 233.395508 164.727051 Q 233.766113 165.317871 234.485840 165.317871 Q 235.200195 165.317871 235.565430 164.732422 Q 235.930664 164.146973 235.930664 162.997559 Z M 233.024902 160.752441 Q 233.261230 160.312012 233.677490 160.075684 Q 234.093750 159.839355 234.641602 159.839355 Q 235.726562 159.839355 236.349609 160.674561 Q 236.972656 161.509766 236.972656 162.976074 Q 236.972656 164.463867 236.346924 165.309814 Q 235.721191 166.155762 234.630859 166.155762 Q 234.093750 166.155762 233.682861 165.922119 Q 233.271973 165.688477 233.024902 165.242676 L 233.024902 166.000000 L 232.036621 166.000000 L 232.036621 157.642578 L 233.024902 157.642578 Z " fill="rgb(0, 0, 0)" fill-opacity="1.000000" />
<path d="M 240.878906 169.319336 L 240.878906 155.300781 L 241.738281 155.300781 L 241.738281 169.319336 Z " fill="rgb(0, 0, 0)" fill-opacity="1.000000" />
<path d="M 261.878906 169.319336 L 261.878906 155.300781 L 262.738281 155.300781 L 262.738281 169.319336 Z " fill="rgb(0, 0, 0)" fill-opacity="1.000000" />
<path d="M 267.981934 161.955566 L 267.981934 165.108398 L 269.265625 165.108398 Q 270.210938 165.108398 270.613770 164.778076 Q 271.016602 164.447754 271.016602 163.690430 Q 271.016602 162.691406 270.592285 162.323486 Q 270.167969 161.955566 269.265625 161.955566 Z M 267.981934 158.872559 L 267.981934 161.074707 L 269.244141 161.074707 Q 270.028320 161.074707 270.380127 160.773926 Q 270.731934 160.473145 270.731934 160.016602 Q 270.731934 159.409668 270.385498 159.141113 Q 270.039062 158.872559 269.244141 158.872559 Z M 266.891602 157.980957 L 269.265625 157.980957 Q 270.495605 157.980957 271.161621 158.512695 Q 271.827637 159.044434 271.827637 160.016602 Q 271.827637 160.537598 271.475830 160.961914 Q 271.124023 161.386230 270.420410 161.493652 Q 271.209961 161.611816 271.658447 162.167725 Q 272.106934 162.723633 272.106934 163.797852 Q 272.106934 164.888184 271.392578 165.444092 Q 270.678223 166.000000 269.265625 166.000000 L 266.891602 166.000000 Z " fill="rgb(0, 0, 0)" fill-opacity="1.000000" />
<path d="M 274.047363 163.722656 L 274.047363 159.995117 L 275.035645 159.995117 L 275.035645 163.722656 Q 275.035645 164.533691 275.322998 164.915039 Q 275.610352 165.296387 276.211914 165.296387 Q 276.910156 165.296387 277.280762 164.804932 Q 277.651367 164.313477 277.651367 163.395020 L 277.651367 159.995117 L 278.645020 159.995117 L 278.645020 166.000000 L 277.651367 166.000000 L 277.651367 165.097656 Q 277.388184 165.618652 276.934326 165.887207 Q 276.480469 166.155762 275.873535 166.155762 Q 274.949707 166.155762 274.498535 165.551514 Q 274.047363 164.947266 274.047363 163.722656 Z " fill="rgb(0, 0, 0)" fill-opacity="1.000000" />
<path d="M 283.861816 163.824707 Q 283.861816 164.490723 284.106201 164.829102 Q 284.350586 165.167480 284.828613 165.167480 L 285.983398 165.167480 L 285.983398 166.000000 L 284.731934 166.000000 Q 283.845703 166.000000 283.359619 165.433350 Q 282.873535 164.866699 282.873535 163.824707 L 282.873535 158.383789 L 281.289062 158.383789 L 281.289062 157.610352 L 283.861816 157.610352 Z " fill="rgb(0, 0, 0)" fill-opacity="1.000000" />
<path d="M 291.930664 162.997559 Q 291.930664 161.848145 291.565430 161.262695 Q 291.200195 160.677246 290.485840 160.677246 Q 289.766113 160.677246 289.395508 161.265381 Q 289.024902 161.853516 289.024902 162.997559 Q 289.024902 164.136230 289.395508 164.727051 Q 289.766113 165.317871 290.485840 165.317871 Q 291.200195 165.317871 291.565430 164.732422 Q 291.930664 164.146973 291.930664 162.997559 Z M 289.024902 160.752441 Q 289.261230 160.312012 289.677490 160.075684 Q 290.093750 159.839355 290.641602 159.839355 Q 291.726562 159.839355 292.349609 160.674561 Q 292.972656 161.509766 292.972656 162.976074 Q 292.972656 164.463867 292.346924 165.309814 Q 291.721191 166.155762 290.630859 166.155762 Q 290.093750 166.155762 289.682861 165.922119 Q 289.271973 165.688477 289.024902 165.242676 L 289.024902 166.000000 L 288.036621 166.000000 L 288.036621 157.642578 L 289.024902 157.642578 Z " fill="rgb(0, 0, 0)" fill-opacity="1.000000" />
<path d="M 296.878906 169.319336 L 296.878906 155.300781 L 297.738281 155.300781 L 297.738281 169.319336 Z " fill="rgb(0, 0, 0)" fill-opacity="1.000000" />
<path d="M 317.878906 169.319336 L 317.878906 155.300781 L 318.738281 155.300781 L 318.738281 169.319336 Z " fill="rgb(0, 0, 0)" fill-opacity="1.000000" />
<path d="M 323.981934 161.955566 L 323.981934 165.108398 L 325.265625 165.108398 Q 326.210938 165.108398 326.613770 164.778076 Q 327.016602 164.447754 327.016602 163.690430 Q 327.016602 162.691406 326.592285 162.323486 Q 326.167969 161.955566 325.265625 161.955566 Z M 323.981934 158.872559 L 323.981934 161.074707 L 325.244141 161.074707 Q 326.028320 161.074707 326.380127 160.773926 Q 326.731934 160.473145 326.731934 160.016602 Q 326.731934 159.409668 326.385498 159.141113 Q 326.039062 158.872559 325.244141 158.872559 Z M 322.891602 157.980957 L 325.265625 157.980957 Q 326.495605 157.980957 327.161621 158.512695 Q 327.827637 159.044434 327.827637 160.016602 Q 327.827637 160.537598 327.475830 160.961914 Q 327.124023 161.386230 326.420410 161.493652 Q 327.209961 161.611816 327.658447 162.167725 Q 328.106934 162.723633 328.106934 163.797852 Q 328.106934 164.888184 327.392578 165.444092 Q 326.678223 166.000000 325.265625 166.000000 L 322.891602 166.000000 Z " fill="rgb(0, 0, 0)" fill-opacity="1.000000" />
<path d="M 330.047363 163.722656 L 330.047363 159.995117 L 331.035645 159.995117 L 331.035645 163.722656 Q 331.035645 164.533691 331.322998 164.915039 Q 331.610352 165.296387 332.211914 165.296387 Q 332.910156 165.296387 333.280762 164.804932 Q 333.651367 164.313477 333.651367 163.395020 L 333.651367 159.995117 L 334.645020 159.995117 L 334.645020 166.000000 L 333.651367 166.000000 L 333.651367 165.097656 Q 333.388184 165.618652 332.934326 165.887207 Q 332.480469 166.155762 331.873535 166.155762 Q 330.949707 166.155762 330.498535 165.551514 Q 330.047363 164.947266 330.047363 163.722656 Z " fill="rgb(0, 0, 0)" fill-opacity="1.000000" />
<path d="M 339.861816 163.824707 Q 339.861816 164.490723 340.106201 164.829102 Q 340.350586 165.167480 340.828613 165.167480 L 341.983398 165.167480 L 341.983398 166.000000 L 340.731934 166.000000 Q 339.845703 166.000000 339.359619 165.433350 Q 338.873535 164.866699 338.873535 163.824707 L 338.873535 158.383789 L 337.289062 158.383789 L 337.289062 157.610352 L 339.861816 157.610352 Z " fill="rgb(0, 0, 0)" fill-opacity="1.000000" />
<path d="M 347.930664 162.997559 Q 347.930664 161.848145 347.565430 161.262695 Q 347.200195 160.677246 346.485840 160.677246 Q 345.766113 160.677246 345.395508 161.265381 Q 345.024902 161.853516 345.024902 162.997559 Q 345.024902 164.136230 345.395508 164.727051 Q 345.766113 165.317871 346.485840 165.317871 Q 347.200195 165.317871 347.565430 164.732422 Q 347.930664 164.146973 347.930664 162.997559 Z M 345.024902 160.752441 Q 345.261230 160.312012 345.677490 160.075684 Q 346.093750 159.839355 346.641602 159.839355 Q 347.726562 159.839355 348.349609 160.674561 Q 348.972656 161.509766 348.972656 162.976074 Q 348.972656 164.463867 348.346924 165.309814 Q 347.721191 166.155762 346.630859 166.155762 Q 346.093750 166.155762 345.682861 165.922119 Q 345.271973 165.688477 345.024902 165.242676 L 345.024902 166.000000 L 344.036621 166.000000 L 344.036621 157.642578 L 345.024902 157.642578 Z " fill="rgb(0, 0, 0)" fill-opacity="1.000000" />
<path d="M 352.878906 169.319336 L 352.878906 155.300781 L 353.738281 155.300781 L 353.738281 169.319336 Z " fill="rgb(0, 0, 0)" fill-opacity="1.000000" />
<path d="M 366.878906 169.319336 L 366.878906 155.300781 L 367.738281 155.300781 L 367.738281 169.319336 Z " fill="rgb(254, 255, 255)" fill-opacity="1.000000" />
<path d="M 373.089355 163.830078 L 374.979980 163.830078 L 374.979980 166.000000 L 373.089355 166.000000 Z " fill="rgb(0, 0, 0)" fill-opacity="1.000000" />
<path d="M 380.089355 163.830078 L 381.979980 163.830078 L 381.979980 166.000000 L 380.089355 166.000000 Z " fill="rgb(0, 0, 0)" fill-opacity="1.000000" />
<path d="M 387.089355 163.830078 L 388.979980 163.830078 L 388.979980 166.000000 L 387.089355 166.000000 Z " fill="rgb(0, 0, 0)" fill-opacity="1.000000" />
<path d="M 401.878906 169.319336 L 401.878906 155.300781 L 402.738281 155.300781 L 402.738281 169.319336 Z " fill="rgb(254, 255, 255)" fill-opacity="1.000000" />
<path d="M 422.878906 169.319336 L 422.878906 155.300781 L 423.738281 155.300781 L 423.738281 169.319336 Z " fill="rgb(0, 0, 0)" fill-opacity="1.000000" />
<path d="M 428.981934 161.955566 L 428.981934 165.108398 L 430.265625 165.108398 Q 431.210938 165.108398 431.613770 164.778076 Q 432.016602 164.447754 432.016602 163.690430 Q 432.016602 162.691406 431.592285 162.323486 Q 431.167969 161.955566 430.265625 161.955566 Z M 428.981934 158.872559 L 428.981934 161.074707 L 430.244141 161.074707 Q 431.028320 161.074707 431.380127 160.773926 Q 431.731934 160.473145 431.731934 160.016602 Q 431.731934 159.409668 431.385498 159.141113 Q 431.039062 158.872559 430.244141 158.872559 Z M 427.891602 157.980957 L 430.265625 157.980957 Q 431.495605 157.980957 432.161621 158.512695 Q 432.827637 159.044434 432.827637 160.016602 Q 432.827637 160.537598 432.475830 160.961914 Q 432.124023 161.386230 431.420410 161.493652 Q 432.209961 161.611816 432.658447 162.167725 Q 433.106934 162.723633 433.106934 163.797852 Q 433.106934 164.888184 432.392578 165.444092 Q 431.678223 166.000000 430.265625 166.000000 L 427.891602 166.000000 Z " fill="rgb(0, 0, 0)" fill-opacity="1.000000" />
<path d="M 435.047363 163.722656 L 435.047363 159.995117 L 436.035645 159.995117 L 436.035645 163.722656 Q 436.035645 164.533691 436.322998 164.915039 Q 436.610352 165.296387 437.211914 165.296387 Q 437.910156 165.296387 438.280762 164.804932 Q 438.651367 164.313477 438.651367 163.395020 L 438.651367 159.995117 L 439.645020 159.995117 L 439.645020 166.000000 L 438.651367 166.000000 L 438.651367 165.097656 Q 438.388184 165.618652 437.934326 165.887207 Q 437.480469 166.155762 436.873535 166.155762 Q 435.949707 166.155762 435.498535 165.551514 Q 435.047363 164.947266 435.047363 163.722656 Z " fill="rgb(0, 0, 0)" fill-opacity="1.000000" />
<path d="M 444.861816 163.824707 Q 444.861816 164.490723 445.106201 164.829102 Q 445.350586 165.167480 445.828613 165.167480 L 446.983398 165.167480 L 446.983398 166.000000 L 445.731934 166.000000 Q 444.845703 166.000000 444.359619 165.433350 Q 443.873535 164.866699 443.873535 163.824707 L 443.873535 158.383789 L 442.289062 158.383789 L 442.289062 157.610352 L 444.861816 157.610352 Z " fill="rgb(0, 0, 0)" fill-opacity="1.000000" />
<path d="M 452.930664 162.997559 Q 452.930664 161.848145 452.565430 161.262695 Q 452.200195 160.677246 451.485840 160.677246 Q 450.766113 160.677246 450.395508 161.265381 Q 450.024902 161.853516 450.024902 162.997559 Q 450.024902 164.136230 450.395508 164.727051 Q 450.766113 165.317871 451.485840 165.317871 Q 452.200195 165.317871 452.565430 164.732422 Q 452.930664 164.146973 452.930664 162.997559 Z M 450.024902 160.752441 Q 450.261230 160.312012 450.677490 160.075684 Q 451.093750 159.839355 451.641602 159.839355 Q 452.726562 159.839355 453.349609 160.674561 Q 453.972656 161.509766 453.972656 162.976074 Q 453.972656 164.463867 453.346924 165.309814 Q 452.721191 166.155762 451.630859 166.155762 Q 451.093750 166.155762 450.682861 165.922119 Q 450.271973 165.688477 450.024902 165.242676 L 450.024902 166.000000 L 449.036621 166.000000 L 449.036621 157.642578 L 450.024902 157.642578 Z " fill="rgb(0, 0, 0)" fill-opacity="1.000000" />
<path d="M 457.878906 169.319336 L 457.878906 155.300781 L 458.738281 155.300781 L 458.738281 169.319336 Z " fill="rgb(0, 0, 0)" fill-opacity="1.000000" />
<path d="M 209.892578 150.335938 L 209.892578 149.412109 L 216.729980 149.412109 L 216.729980 150.335938 Z " fill="rgb(0, 0, 0)" fill-opacity="1.000000" />
<path d="M 216.892578 150.335938 L 216.892578 149.412109 L 223.729980 149.412109 L 223.729980 150.335938 Z " fill="rgb(0, 0, 0)" fill-opacity="1.000000" />
<path d="M 223.892578 150.335938 L 223.892578 149.412109 L 230.729980 149.412109 L 230.729980 150.335938 Z " fill="rgb(0, 0, 0)" fill-opacity="1.000000" />
<path d="M 230.892578 150.335938 L 230.892578 149.412109 L 237.729980 149.412109 L 237.729980 150.335938 Z " fill="rgb(0, 0, 0)" fill-opacity="1.000000" />
<path d="M 240.878906 156.319336 L 240.878906 150.335938 L 237.892578 150.335938 L 237.892578 149.412109 L 241.738281 149.412109 L 241.738281 156.319336 Z " fill="rgb(0, 0, 0)" fill-opacity="1.000000" />
<path d="M 261.878906 156.319336 L 261.878906 149.412109 L 265.729980 149.412109 L 265.729980 150.335938 L 262.738281 150.335938 L 262.738281 156.319336 Z " fill="rgb(0, 0, 0)" fill-opacity="1.000000" />
<path d="M 265.892578 150.335938 L 265.892578 149.412109 L 272.729980 149.412109 L 272.729980 150.335938 Z " fill="rgb(0, 0, 0)" fill-opacity="1.000000" />
<path d="M 272.892578 150.335938 L 272.892578 149.412109 L 279.729980 149.412109 L 279.729980 150.335938 Z " fill="rgb(0, 0, 0)" fill-opacity="1.000000" />
<path d="M 279.892578 150.335938 L 279.892578 149.412109 L 286.729980 149.412109 L 286.729980 150.335938 Z " fill="rgb(0, 0, 0)" fill-opacity="1.000000" />
<path d="M 286.892578 150.335938 L 286.892578 149.412109 L 293.729980 149.412109 L 293.729980 150.335938 Z " fill="rgb(0, 0, 0)" fill-opacity="1.000000" />
<path d="M 296.878906 156.319336 L 296.878906 150.335938 L 293.892578 150.335938 L 293.892578 149.412109 L 297.738281 149.412109 L 297.738281 156.319336 Z " fill="rgb(0, 0, 0)" fill-opacity="1.000000" />
<path d="M 317.878906 156.319336 L 317.878906 149.412109 L 321.729980 149.412109 L 321.729980 150.335938 L 318.738281 150.335938 L 318.738281 156.319336 Z " fill="rgb(0, 0, 0)" fill-opacity="1.000000" />
<path d="M 321.892578 150.335938 L 321.892578 149.412109 L 328.729980 149.412109 L 328.729980 150.335938 Z " fill="rgb(0, 0, 0)" fill-opacity="1.000000" />
<path d="M 328.892578 150.335938 L 328.892578 149.412109 L 335.729980 149.412109 L 335.729980 150.335938 Z " fill="rgb(0, 0, 0)" fill-opacity="1.000000" />
<path d="M 335.892578 150.335938 L 335.892578 149.412109 L 342.729980 149.412109 L 342.729980 150.335938 Z " fill="rgb(0, 0, 0)" fill-opacity="1.000000" />
<path d="M 342.892578 150.335938 L 342.892578 149.412109 L 349.729980 149.412109 L 349.729980 150.335938 Z " fill="rgb(0, 0, 0)" fill-opacity="1.000000" />
<path d="M 352.878906 156.319336 L 352.878906 150.335938 L 349.892578 150.335938 L 349.892578 149.412109 L 353.738281 149.412109 L 353.738281 156.319336 Z " fill="rgb(0, 0, 0)" fill-opacity="1.000000" />
<path d="M 366.878906 156.319336 L 366.878906 149.412109 L 370.729980 149.412109 L 370.729980 150.335938 L 367.738281 150.335938 L 367.738281 156.319336 Z " fill="rgb(254, 255, 255)" fill-opacity="1.000000" />
<path d="M 370.892578 150.335938 L 370.892578 149.412109 L 377.729980 149.412109 L 377.729980 150.335938 Z " fill="rgb(254, 255, 255)" fill-opacity="1.000000" />
<path d="M 377.892578 150.335938 L 377.892578 149.412109 L 384.729980 149.412109 L 384.729980 150.335938 Z " fill="rgb(254, 255, 255)" fill-opacity="1.000000" />
<path d="M 384.892578 150.335938 L 384.892578 149.412109 L 391.729980 149.412109 L 391.729980 150.335938 Z " fill="rgb(254, 255, 255)" fill-opacity="1.000000" />
<path d="M 391.892578 150.335938 L 391.892578 149.412109 L 398.729980 149.412109 L 398.729980 150.335938 Z " fill="rgb(254, 255, 255)" fill-opacity="1.000000" />
<path d="M 401.878906 156.319336 L 401.878906 150.335938 L 398.892578 150.335938 L 398.892578 149.412109 L 402.738281 149.412109 L 402.738281 156.319336 Z " fill="rgb(254, 255, 255)" fill-opacity="1.000000" />
<path d="M 422.878906 156.319336 L 422.878906 149.412109 L 426.729980 149.412109 L 426.729980 150.335938 L 423.738281 150.335938 L 423.738281 156.319336 Z " fill="rgb(0, 0, 0)" fill-opacity="1.000000" />
<path d="M 426.892578 150.335938 L 426.892578 149.412109 L 433.729980 149.412109 L 433.729980 150.335938 Z " fill="rgb(0, 0, 0)" fill-opacity="1.000000" />
<path d="M 433.892578 150.335938 L 433.892578 149.412109 L 440.729980 149.412109 L 440.729980 150.335938 Z " fill="rgb(0, 0, 0)" fill-opacity="1.000000" />
<path d="M 440.892578 150.335938 L 440.892578 149.412109 L 447.729980 149.412109 L 447.729980 150.335938 Z " fill="rgb(0, 0, 0)" fill-opacity="1.000000" />
<path d="M 447.892578 150.335938 L 447.892578 149.412109 L 454.729980 149.412109 L 454.729980 150.335938 Z " fill="rgb(0, 0, 0)" fill-opacity="1.000000" />
<path d="M 457.878906 156.319336 L 457.878906 150.335938 L 454.892578 150.335938 L 454.892578 149.412109 L 458.738281 149.412109 L 458.738281 156.319336 Z " fill="rgb(0, 0, 0)" fill-opacity="1.000000" />
<path d="M 226.878906 117.319336 L 226.878906 110.412109 L 230.729980 110.412109 L 230.729980 111.335938 L 227.738281 111.335938 L 227.738281 117.319336 Z " fill="rgb(0, 0, 0)" fill-opacity="1.000000" />
<path d="M 226.878906 130.319336 L 226.878906 116.300781 L 227.738281 116.300781 L 227.738281 130.319336 Z " fill="rgb(0, 0, 0)" fill-opacity="1.000000" />
<path d="M 227.308594 140.418945 L 224.032227 133.866211 L 230.590332 133.866211 Z " fill="rgb(0, 0, 0)" fill-opacity="1.000000" />
<path d="M 283.308594 140.418945 L 280.032227 133.866211 L 286.590332 133.866211 Z " fill="rgb(0, 0, 0)" fill-opacity="1.000000" />
<path d="M 339.308594 140.418945 L 336.032227 133.866211 L 342.590332 133.866211 Z " fill="rgb(0, 0, 0)" fill-opacity="1.000000" />
<path d="M 444.308594 140.418945 L 441.032227 133.866211 L 447.590332 133.866211 Z " fill="rgb(0, 0, 0)" fill-opacity="1.000000" />
<path d="M 282.878906 130.319336 L 282.878906 116.300781 L 283.738281 116.300781 L 283.738281 130.319336 Z " fill="rgb(0, 0, 0)" fill-opacity="1.000000" />
<path d="M 338.878906 130.319336 L 338.878906 116.300781 L 339.738281 116.300781 L 339.738281 130.319336 Z " fill="rgb(0, 0, 0)" fill-opacity="1.000000" />
<path d="M 443.878906 130.319336 L 443.878906 116.300781 L 444.738281 116.300781 L 444.738281 130.319336 Z " fill="rgb(0, 0, 0)" fill-opacity="1.000000" />
<path d="M 230.892578 111.335938 L 230.892578 110.412109 L 237.729980 110.412109 L 237.729980 111.335938 Z " fill="rgb(0, 0, 0)" fill-opacity="1.000000" />
<path d="M 237.892578 111.335938 L 237.892578 110.412109 L 244.729980 110.412109 L 244.729980 111.335938 Z " fill="rgb(0, 0, 0)" fill-opacity="1.000000" />
<path d="M 244.892578 111.335938 L 244.892578 110.412109 L 251.729980 110.412109 L 251.729980 111.335938 Z " fill="rgb(0, 0, 0)" fill-opacity="1.000000" />
<path d="M 251.892578 111.335938 L 251.892578 110.412109 L 258.729980 110.412109 L 258.729980 111.335938 Z " fill="rgb(0, 0, 0)" fill-opacity="1.000000" />
<path d="M 258.892578 111.335938 L 258.892578 110.412109 L 265.729980 110.412109 L 265.729980 111.335938 Z " fill="rgb(0, 0, 0)" fill-opacity="1.000000" />
<path d="M 265.892578 111.335938 L 265.892578 110.412109 L 272.729980 110.412109 L 272.729980 111.335938 Z " fill="rgb(0, 0, 0)" fill-opacity="1.000000" />
<path d="M 272.892578 111.335938 L 272.892578 110.412109 L 275.878906 110.412109 L 275.878906 103.300781 L 276.738281 103.300781 L 276.738281 111.335938 Z " fill="rgb(0, 0, 0)" fill-opacity="1.000000" />
<path d="M 282.878906 117.319336 L 282.878906 110.412109 L 286.729980 110.412109 L 286.729980 111.335938 L 283.738281 111.335938 L 283.738281 117.319336 Z " fill="rgb(0, 0, 0)" fill-opacity="1.000000" />
<path d="M 286.892578 111.335938 L 286.892578 110.412109 L 293.729980 110.412109 L 293.729980 111.335938 Z " fill="rgb(0, 0, 0)" fill-opacity="1.000000" />
<path d="M 293.892578 111.335938 L 293.892578 110.412109 L 300.729980 110.412109 L 300.729980 111.335938 Z " fill="rgb(0, 0, 0)" fill-opacity="1.000000" />
<path d="M 300.892578 111.335938 L 300.892578 110.412109 L 307.729980 110.412109 L 307.729980 111.335938 Z " fill="rgb(0, 0, 0)" fill-opacity="1.000000" />
<path d="M 307.892578 111.335938 L 307.892578 110.412109 L 314.729980 110.412109 L 314.729980 111.335938 Z " fill="rgb(0, 0, 0)" fill-opacity="1.000000" />
<path d="M 314.892578 111.335938 L 314.892578 110.412109 L 317.878906 110.412109 L 317.878906 103.300781 L 318.738281 103.300781 L 318.738281 111.335938 Z " fill="rgb(0, 0, 0)" fill-opacity="1.000000" />
<path d="M 338.878906 117.319336 L 338.878906 103.300781 L 339.738281 103.300781 L 339.738281 117.319336 Z " fill="rgb(0, 0, 0)" fill-opacity="1.000000" />
<path d="M 401.878906 111.335938 L 401.878906 103.300781 L 402.738281 103.300781 L 402.738281 110.412109 L 405.729980 110.412109 L 405.729980 111.335938 Z " fill="rgb(0, 0, 0)" fill-opacity="1.000000" />
<path d="M 405.892578 111.335938 L 405.892578 110.412109 L 412.729980 110.412109 L 412.729980 111.335938 Z " fill="rgb(0, 0, 0)" fill-opacity="1.000000" />
<path d="M 412.892578 111.335938 L 412.892578 110.412109 L 419.729980 110.412109 L 419.729980 111.335938 Z " fill="rgb(0, 0, 0)" fill-opacity="1.000000" />
<path d="M 419.892578 111.335938 L 419.892578 110.412109 L 426.729980 110.412109 L 426.729980 111.335938 Z " fill="rgb(0, 0, 0)" fill-opacity="1.000000" />
<path d="M 426.892578 111.335938 L 426.892578 110.412109 L 433.729980 110.412109 L 433.729980 111.335938 Z " fill="rgb(0, 0, 0)" fill-opacity="1.000000" />
<path d="M 433.892578 111.335938 L 433.892578 110.412109 L 440.729980 110.412109 L 440.729980 111.335938 Z " fill="rgb(0, 0, 0)" fill-opacity="1.000000" />
<path d="M 443.878906 117.319336 L 443.878906 111.335938 L 440.892578 111.335938 L 440.892578 110.412109 L 444.738281 110.412109 L 444.738281 117.319336 Z " fill="rgb(0, 0, 0)" fill-opacity="1.000000" />
<path d="M 6.892578 98.335938 L 6.892578 97.412109 L 13.729980 97.412109 L 13.729980 98.335938 Z " fill="rgb(0, 0, 0)" fill-opacity="1.000000" />
<path d="M 13.892578 98.335938 L 13.892578 97.412109 L 20.729980 97.412109 L 20.729980 98.335938 Z " fill="rgb(0, 0, 0)" fill-opacity="1.000000" />
<path d="M 20.892578 98.335938 L 20.892578 97.412109 L 27.729980 97.412109 L 27.729980 98.335938 Z " fill="rgb(0, 0, 0)" fill-opacity="1.000000" />
<path d="M 27.892578 98.335938 L 27.892578 97.412109 L 34.729980 97.412109 L 34.729980 98.335938 Z " fill="rgb(0, 0, 0)" fill-opacity="1.000000" />
<path d="M 34.892578 98.335938 L 34.892578 97.412109 L 41.729980 97.412109 L 41.729980 98.335938 Z " fill="rgb(0, 0, 0)" fill-opacity="1.000000" />
<path d="M 41.892578 98.335938 L 41.892578 97.412109 L 48.729980 97.412109 L 48.729980 98.335938 Z " fill="rgb(0, 0, 0)" fill-opacity="1.000000" />
<path d="M 48.892578 98.335938 L 48.892578 97.412109 L 55.729980 97.412109 L 55.729980 98.335938 Z " fill="rgb(0, 0, 0)" fill-opacity="1.000000" />
<path d="M 55.892578 98.335938 L 55.892578 97.412109 L 62.729980 97.412109 L 62.729980 98.335938 Z " fill="rgb(0, 0, 0)" fill-opacity="1.000000" />
<path d="M 62.892578 98.335938 L 62.892578 97.412109 L 69.729980 97.412109 L 69.729980 98.335938 Z " fill="rgb(0, 0, 0)" fill-opacity="1.000000" />
<path d="M 69.892578 98.335938 L 69.892578 97.412109 L 76.729980 97.412109 L 76.729980 98.335938 Z " fill="rgb(0, 0, 0)" fill-opacity="1.000000" />
<path d="M 76.892578 98.335938 L 76.892578 97.412109 L 83.729980 97.412109 L 83.729980 98.335938 Z " fill="rgb(0, 0, 0)" fill-opacity="1.000000" />
<path d="M 83.892578 98.335938 L 83.892578 97.412109 L 90.729980 97.412109 L 90.729980 98.335938 Z " fill="rgb(0, 0, 0)" fill-opacity="1.000000" />
<path d="M 90.892578 98.335938 L 90.892578 97.412109 L 97.729980 97.412109 L 97.729980 98.335938 Z " fill="rgb(0, 0, 0)" fill-opacity="1.000000" />
<path d="M 97.892578 98.335938 L 97.892578 97.412109 L 104.729980 97.412109 L 104.729980 98.335938 Z " fill="rgb(0, 0, 0)" fill-opacity="1.000000" />
<path d="M 104.892578 98.335938 L 104.892578 97.412109 L 111.729980 97.412109 L 111.729980 98.335938 Z " fill="rgb(0, 0, 0)" fill-opacity="1.000000" />
<path d="M 111.892578 98.335938 L 111.892578 97.412109 L 118.729980 97.412109 L 118.729980 98.335938 Z " fill="rgb(0, 0, 0)" fill-opacity="1.000000" />
<path d="M 118.892578 98.335938 L 118.892578 97.412109 L 125.729980 97.412109 L 125.729980 98.335938 Z " fill="rgb(0, 0, 0)" fill-opacity="1.000000" />
<path d="M 125.892578 98.335938 L 125.892578 97.412109 L 128.878906 97.412109 L 128.878906 90.300781 L 129.738281 90.300781 L 129.738281 98.335938 Z " fill="rgb(0, 0, 0)" fill-opacity="1.000000" />
<path d="M 268.878906 98.335938 L 268.878906 90.300781 L 269.738281 90.300781 L 269.738281 97.412109 L 272.729980 97.412109 L 272.729980 98.335938 Z " fill="rgb(0, 0, 0)" fill-opacity="1.000000" />
<path d="M 273.032227 101.418945 L 276.308594 94.866211 L 279.590332 101.418945 Z " fill="rgb(0, 0, 0)" fill-opacity="1.000000" />
<path d="M 279.892578 98.335938 L 279.892578 97.412109 L 286.729980 97.412109 L 286.729980 98.335938 Z " fill="rgb(0, 0, 0)" fill-opacity="1.000000" />
<path d="M 286.892578 98.335938 L 286.892578 97.412109 L 293.729980 97.412109 L 293.729980 98.335938 Z " fill="rgb(0, 0, 0)" fill-opacity="1.000000" />
<path d="M 293.892578 98.335938 L 293.892578 97.412109 L 300.729980 97.412109 L 300.729980 98.335938 Z " fill="rgb(0, 0, 0)" fill-opacity="1.000000" />
<path d="M 300.892578 98.335938 L 300.892578 97.412109 L 307.729980 97.412109 L 307.729980 98.335938 Z " fill="rgb(0, 0, 0)" fill-opacity="1.000000" />
<path d="M 307.892578 98.335938 L 307.892578 97.412109 L 314.729980 97.412109 L 314.729980 98.335938 Z " fill="rgb(0, 0, 0)" fill-opacity="1.000000" />
<path d="M 315.032227 101.418945 L 318.308594 94.866211 L 321.590332 101.418945 Z " fill="rgb(0, 0, 0)" fill-opacity="1.000000" />
<path d="M 321.892578 98.335938 L 321.892578 97.412109 L 328.729980 97.412109 L 328.729980 98.335938 Z " fill="rgb(0, 0, 0)" fill-opacity="1.000000" />
<path d="M 328.892578 98.335938 L 328.892578 97.412109 L 335.729980 97.412109 L 335.729980 98.335938 Z " fill="rgb(0, 0, 0)" fill-opacity="1.000000" />
<path d="M 336.032227 101.418945 L 339.308594 94.866211 L 342.590332 101.418945 Z " fill="rgb(0, 0, 0)" fill-opacity="1.000000" />
<path d="M 342.892578 98.335938 L 342.892578 97.412109 L 349.729980 97.412109 L 349.729980 98.335938 Z " fill="rgb(0, 0, 0)" fill-opacity="1.000000" />
<path d="M 349.892578 98.335938 L 349.892578 97.412109 L 356.729980 97.412109 L 356.729980 98.335938 Z " fill="rgb(0, 0, 0)" fill-opacity="1.000000" />
<path d="M 356.892578 98.335938 L 356.892578 97.412109 L 363.729980 97.412109 L 363.729980 98.335938 Z " fill="rgb(0, 0, 0)" fill-opacity="1.000000" />
<path d="M 363.892578 98.335938 L 363.892578 97.412109 L 370.729980 97.412109 L 370.729980 98.335938 Z " fill="rgb(0, 0, 0)" fill-opacity="1.000000" />
<path d="M 370.892578 98.335938 L 370.892578 97.412109 L 377.729980 97.412109 L 377.729980 98.335938 Z " fill="rgb(0, 0, 0)" fill-opacity="1.000000" />
<path d="M 377.892578 98.335938 L 377.892578 97.412109 L 384.729980 97.412109 L 384.729980 98.335938 Z " fill="rgb(0, 0, 0)" fill-opacity="1.000000" />
<path d="M 384.892578 98.335938 L 384.892578 97.412109 L 391.729980 97.412109 L 391.729980 98.335938 Z " fill="rgb(0, 0, 0)" fill-opacity="1.000000" />
<path d="M 391.892578 98.335938 L 391.892578 97.412109 L 398.729980 97.412109 L 398.729980 98.335938 Z " fill="rgb(0, 0, 0)" fill-opacity="1.000000" />
<path d="M 399.032227 101.418945 L 402.308594 94.866211 L 405.590332 101.418945 Z " fill="rgb(0, 0, 0)" fill-opacity="1.000000" />
<path d="M 405.892578 98.335938 L 405.892578 97.412109 L 412.729980 97.412109 L 412.729980 98.335938 Z " fill="rgb(0, 0, 0)" fill-opacity="1.000000" />
<path d="M 412.892578 98.335938 L 412.892578 97.412109 L 415.878906 97.412109 L 415.878906 90.300781 L 416.738281 90.300781 L 416.738281 98.335938 Z " fill="rgb(0, 0, 0)" fill-opacity="1.000000" />
<path d="M 33.763184 48.715332 Q 33.349609 48.935547 32.914551 49.045654 Q 32.479492 49.155762 31.990723 49.155762 Q 30.449219 49.155762 29.597900 48.065430 Q 28.746582 46.975098 28.746582 44.998535 Q 28.746582 43.032715 29.603271 41.934326 Q 30.459961 40.835938 31.990723 40.835938 Q 32.479492 40.835938 32.914551 40.946045 Q 33.349609 41.056152 33.763184 41.276367 L 33.763184 42.388184 Q 33.365723 42.060547 32.909180 41.888672 Q 32.452637 41.716797 31.990723 41.716797 Q 30.932617 41.716797 30.406250 42.533203 Q 29.879883 43.349609 29.879883 44.998535 Q 29.879883 46.642090 30.406250 47.458496 Q 30.932617 48.274902 31.990723 48.274902 Q 32.463379 48.274902 32.917236 48.103027 Q 33.371094 47.931152 33.763184 47.603516 Z " fill="rgb(0, 0, 0)" fill-opacity="1.000000" />
<path d="M 128.878906 65.319336 L 128.878906 51.300781 L 129.738281 51.300781 L 129.738281 65.319336 Z " fill="rgb(0, 0, 0)" fill-opacity="1.000000" />
<path d="M 128.878906 78.319336 L 128.878906 64.300781 L 129.738281 64.300781 L 129.738281 78.319336 Z " fill="rgb(0, 0, 0)" fill-opacity="1.000000" />
<path d="M 128.878906 91.319336 L 128.878906 77.300781 L 129.738281 77.300781 L 129.738281 91.319336 Z " fill="rgb(0, 0, 0)" fill-opacity="1.000000" />
<path d="M 133.032227 59.142578 L 139.590332 55.866211 L 139.590332 62.418945 Z " fill="rgb(0, 0, 0)" fill-opacity="1.000000" />
<path d="M 268.878906 78.319336 L 268.878906 64.300781 L 269.738281 64.300781 L 269.738281 78.319336 Z " fill="rgb(0, 0, 0)" fill-opacity="1.000000" />
<path d="M 268.878906 91.319336 L 268.878906 77.300781 L 269.738281 77.300781 L 269.738281 91.319336 Z " fill="rgb(0, 0, 0)" fill-opacity="1.000000" />
<path d="M 415.878906 78.319336 L 415.878906 64.300781 L 416.738281 64.300781 L 416.738281 78.319336 Z " fill="rgb(0, 0, 0)" fill-opacity="1.000000" />
<path d="M 415.878906 91.319336 L 415.878906 77.300781 L 416.738281 77.300781 L 416.738281 91.319336 Z " fill="rgb(0, 0, 0)" fill-opacity="1.000000" />
<path d="M 139.892578 59.335938 L 139.892578 58.412109 L 146.729980 58.412109 L 146.729980 59.335938 Z " fill="rgb(0, 0, 0)" fill-opacity="1.000000" />
<path d="M 146.892578 59.335938 L 146.892578 58.412109 L 153.729980 58.412109 L 153.729980 59.335938 Z " fill="rgb(0, 0, 0)" fill-opacity="1.000000" />
<path d="M 153.892578 59.335938 L 153.892578 58.412109 L 160.729980 58.412109 L 160.729980 59.335938 Z " fill="rgb(0, 0, 0)" fill-opacity="1.000000" />
<path d="M 160.892578 59.335938 L 160.892578 58.412109 L 167.729980 58.412109 L 167.729980 59.335938 Z " fill="rgb(0, 0, 0)" fill-opacity="1.000000" />
<path d="M 167.892578 59.335938 L 167.892578 58.412109 L 174.729980 58.412109 L 174.729980 59.335938 Z " fill="rgb(0, 0, 0)" fill-opacity="1.000000" />
<path d="M 174.892578 59.335938 L 174.892578 58.412109 L 181.729980 58.412109 L 181.729980 59.335938 Z " fill="rgb(0, 0, 0)" fill-opacity="1.000000" />
<path d="M 181.892578 59.335938 L 181.892578 58.412109 L 188.729980 58.412109 L 188.729980 59.335938 Z " fill="rgb(0, 0, 0)" fill-opacity="1.000000" />
<path d="M 188.892578 59.335938 L 188.892578 58.412109 L 195.729980 58.412109 L 195.729980 59.335938 Z " fill="rgb(0, 0, 0)" fill-opacity="1.000000" />
<path d="M 195.892578 59.335938 L 195.892578 58.412109 L 202.729980 58.412109 L 202.729980 59.335938 Z " fill="rgb(0, 0, 0)" fill-opacity="1.000000" />
<path d="M 202.892578 59.335938 L 202.892578 58.412109 L 209.729980 58.412109 L 209.729980 59.335938 Z " fill="rgb(0, 0, 0)" fill-opacity="1.000000" />
<path d="M 209.892578 59.335938 L 209.892578 58.412109 L 216.729980 58.412109 L 216.729980 59.335938 Z " fill="rgb(0, 0, 0)" fill-opacity="1.000000" />
<path d="M 216.892578 59.335938 L 216.892578 58.412109 L 223.729980 58.412109 L 223.729980 59.335938 Z " fill="rgb(0, 0, 0)" fill-opacity="1.000000" />
<path d="M 223.892578 59.335938 L 223.892578 58.412109 L 230.729980 58.412109 L 230.729980 59.335938 Z " fill="rgb(0, 0, 0)" fill-opacity="1.000000" />
<path d="M 230.892578 59.335938 L 230.892578 58.412109 L 237.729980 58.412109 L 237.729980 59.335938 Z " fill="rgb(0, 0, 0)" fill-opacity="1.000000" />
<path d="M 237.892578 59.335938 L 237.892578 58.412109 L 244.729980 58.412109 L 244.729980 59.335938 Z " fill="rgb(0, 0, 0)" fill-opacity="1.000000" />
<path d="M 244.892578 59.335938 L 244.892578 58.412109 L 251.729980 58.412109 L 251.729980 59.335938 Z " fill="rgb(0, 0, 0)" fill-opacity="1.000000" />
<path d="M 251.892578 59.335938 L 251.892578 58.412109 L 258.729980 58.412109 L 258.729980 59.335938 Z " fill="rgb(0, 0, 0)" fill-opacity="1.000000" />
<path d="M 259.032227 62.418945 L 259.032227 55.866211 L 265.590332 59.142578 Z " fill="rgb(0, 0, 0)" fill-opacity="1.000000" />
<path d="M 268.878906 65.319336 L 268.878906 51.300781 L 269.738281 51.300781 L 269.738281 65.319336 Z " fill="rgb(0, 0, 0)" fill-opacity="1.000000" />
<path d="M 415.878906 65.319336 L 415.878906 51.300781 L 416.738281 51.300781 L 416.738281 65.319336 Z " fill="rgb(0, 0, 0)" fill-opacity="1.000000" />
<path d="M 38.308594 43.677246 Q 37.556641 43.677246 37.169922 44.262695 Q 36.783203 44.848145 36.783203 45.997559 Q 36.783203 47.141602 37.169922 47.729736 Q 37.556641 48.317871 38.308594 48.317871 Q 39.065918 48.317871 39.452637 47.729736 Q 39.839355 47.141602 39.839355 45.997559 Q 39.839355 44.848145 39.452637 44.262695 Q 39.065918 43.677246 38.308594 43.677246 Z M 38.308594 42.839355 Q 39.560059 42.839355 40.223389 43.650391 Q 40.886719 44.461426 40.886719 45.997559 Q 40.886719 47.539062 40.226074 48.347412 Q 39.565430 49.155762 38.308594 49.155762 Q 37.057129 49.155762 36.396484 48.347412 Q 35.735840 47.539062 35.735840 45.997559 Q 35.735840 44.461426 36.396484 43.650391 Q 37.057129 42.839355 38.308594 42.839355 Z " fill="rgb(0, 0, 0)" fill-opacity="1.000000" />
<path d="M 47.645020 45.272461 L 47.645020 49.000000 L 46.651367 49.000000 L 46.651367 45.272461 Q 46.651367 44.461426 46.366699 44.080078 Q 46.082031 43.698730 45.475098 43.698730 Q 44.782227 43.698730 44.408936 44.190186 Q 44.035645 44.681641 44.035645 45.600098 L 44.035645 49.000000 L 43.047363 49.000000 L 43.047363 42.984375 L 44.035645 42.984375 L 44.035645 43.886719 Q 44.298828 43.371094 44.750000 43.105225 Q 45.201172 42.839355 45.818848 42.839355 Q 46.737305 42.839355 47.191162 43.443604 Q 47.645020 44.047852 47.645020 45.272461 Z " fill="rgb(0, 0, 0)" fill-opacity="1.000000" />
<path d="M 52.297852 41.276367 L 52.297852 42.984375 L 54.542969 42.984375 L 54.542969 43.752441 L 52.297852 43.752441 L 52.297852 47.018066 Q 52.297852 47.684082 52.550293 47.947266 Q 52.802734 48.210449 53.431152 48.210449 L 54.542969 48.210449 L 54.542969 49.000000 L 53.334473 49.000000 Q 52.222656 49.000000 51.766113 48.554199 Q 51.309570 48.108398 51.309570 47.018066 L 51.309570 43.752441 L 49.703613 43.752441 L 49.703613 42.984375 L 51.309570 42.984375 L 51.309570 41.276367 Z " fill="rgb(0, 0, 0)" fill-opacity="1.000000" />
<path d="M 62.203613 44.225098 Q 61.886719 43.978027 61.559082 43.865234 Q 61.231445 43.752441 60.839355 43.752441 Q 59.915527 43.752441 59.426758 44.332520 Q 58.937988 44.912598 58.937988 46.008301 L 58.937988 49.000000 L 57.944336 49.000000 L 57.944336 42.984375 L 58.937988 42.984375 L 58.937988 44.160645 Q 59.185059 43.521484 59.697998 43.180420 Q 60.210938 42.839355 60.914551 42.839355 Q 61.279785 42.839355 61.596680 42.930664 Q 61.913574 43.021973 62.203613 43.215332 Z " fill="rgb(0, 0, 0)" fill-opacity="1.000000" />
<path d="M 66.308594 43.677246 Q 65.556641 43.677246 65.169922 44.262695 Q 64.783203 44.848145 64.783203 45.997559 Q 64.783203 47.141602 65.169922 47.729736 Q 65.556641 48.317871 66.308594 48.317871 Q 67.065918 48.317871 67.452637 47.729736 Q 67.839355 47.141602 67.839355 45.997559 Q 67.839355 44.848145 67.452637 44.262695 Q 67.065918 43.677246 66.308594 43.677246 Z M 66.308594 42.839355 Q 67.560059 42.839355 68.223389 43.650391 Q 68.886719 44.461426 68.886719 45.997559 Q 68.886719 47.539062 68.226074 48.347412 Q 67.565430 49.155762 66.308594 49.155762 Q 65.057129 49.155762 64.396484 48.347412 Q 63.735840 47.539062 63.735840 45.997559 Q 63.735840 44.461426 64.396484 43.650391 Q 65.057129 42.839355 66.308594 42.839355 Z " fill="rgb(0, 0, 0)" fill-opacity="1.000000" />
<path d="M 73.861816 46.824707 Q 73.861816 47.490723 74.106201 47.829102 Q 74.350586 48.167480 74.828613 48.167480 L 75.983398 48.167480 L 75.983398 49.000000 L 74.731934 49.000000 Q 73.845703 49.000000 73.359619 48.433350 Q 72.873535 47.866699 72.873535 46.824707 L 72.873535 41.383789 L 71.289062 41.383789 L 71.289062 40.610352 L 73.861816 40.610352 Z " fill="rgb(0, 0, 0)" fill-opacity="1.000000" />
<path d="M 80.861816 46.824707 Q 80.861816 47.490723 81.106201 47.829102 Q 81.350586 48.167480 81.828613 48.167480 L 82.983398 48.167480 L 82.983398 49.000000 L 81.731934 49.000000 Q 80.845703 49.000000 80.359619 48.433350 Q 79.873535 47.866699 79.873535 46.824707 L 79.873535 41.383789 L 78.289062 41.383789 L 78.289062 40.610352 L 80.861816 40.610352 Z " fill="rgb(0, 0, 0)" fill-opacity="1.000000" />
<path d="M 90.015625 45.498047 L 90.015625 45.981445 L 85.734863 45.981445 L 85.734863 46.013672 Q 85.691895 47.243652 86.204834 47.780762 Q 86.717773 48.317871 87.652344 48.317871 Q 88.125000 48.317871 88.640625 48.167480 Q 89.156250 48.017090 89.741699 47.710938 L 89.741699 48.693848 Q 89.177734 48.924805 88.654053 49.040283 Q 88.130371 49.155762 87.641602 49.155762 Q 86.239746 49.155762 85.450195 48.315186 Q 84.660645 47.474609 84.660645 45.997559 Q 84.660645 44.558105 85.434082 43.698730 Q 86.207520 42.839355 87.496582 42.839355 Q 88.645996 42.839355 89.309326 43.618164 Q 89.972656 44.396973 90.015625 45.498047 Z M 89.027344 45.208008 Q 88.962891 44.584961 88.573486 44.131104 Q 88.184082 43.677246 87.453613 43.677246 Q 86.739258 43.677246 86.277344 44.149902 Q 85.815430 44.622559 85.772461 45.213379 Z " fill="rgb(0, 0, 0)" fill-opacity="1.000000" />
<path d="M 97.203613 44.225098 Q 96.886719 43.978027 96.559082 43.865234 Q 96.231445 43.752441 95.839355 43.752441 Q 94.915527 43.752441 94.426758 44.332520 Q 93.937988 44.912598 93.937988 46.008301 L 93.937988 49.000000 L 92.944336 49.000000 L 92.944336 42.984375 L 93.937988 42.984375 L 93.937988 44.160645 Q 94.185059 43.521484 94.697998 43.180420 Q 95.210938 42.839355 95.914551 42.839355 Q 96.279785 42.839355 96.596680 42.930664 Q 96.913574 43.021973 97.203613 43.215332 Z " fill="rgb(0, 0, 0)" fill-opacity="1.000000" />
<path d="M 128.878906 52.319336 L 128.878906 38.300781 L 129.738281 38.300781 L 129.738281 52.319336 Z " fill="rgb(0, 0, 0)" fill-opacity="1.000000" />
<path d="M 268.878906 52.319336 L 268.878906 38.300781 L 269.738281 38.300781 L 269.738281 52.319336 Z " fill="rgb(0, 0, 0)" fill-opacity="1.000000" />
<path d="M 329.735840 40.980957 L 330.826172 40.980957 L 330.826172 44.053223 L 333.796387 44.053223 L 333.796387 40.980957 L 334.886719 40.980957 L 334.886719 49.000000 L 333.796387 49.000000 L 333.796387 44.966309 L 330.826172 44.966309 L 330.826172 49.000000 L 329.735840 49.000000 Z " fill="rgb(0, 0, 0)" fill-opacity="1.000000" />
<path d="M 337.047363 46.722656 L 337.047363 42.995117 L 338.035645 42.995117 L 338.035645 46.722656 Q 338.035645 47.533691 338.322998 47.915039 Q 338.610352 48.296387 339.211914 48.296387 Q 339.910156 48.296387 340.280762 47.804932 Q 340.651367 47.313477 340.651367 46.395020 L 340.651367 42.995117 L 341.645020 42.995117 L 341.645020 49.000000 L 340.651367 49.000000 L 340.651367 48.097656 Q 340.388184 48.618652 339.934326 48.887207 Q 339.480469 49.155762 338.873535 49.155762 Q 337.949707 49.155762 337.498535 48.551514 Q 337.047363 47.947266 337.047363 46.722656 Z " fill="rgb(0, 0, 0)" fill-opacity="1.000000" />
<path d="M 347.930664 45.997559 Q 347.930664 44.848145 347.565430 44.262695 Q 347.200195 43.677246 346.485840 43.677246 Q 345.766113 43.677246 345.395508 44.265381 Q 345.024902 44.853516 345.024902 45.997559 Q 345.024902 47.136230 345.395508 47.727051 Q 345.766113 48.317871 346.485840 48.317871 Q 347.200195 48.317871 347.565430 47.732422 Q 347.930664 47.146973 347.930664 45.997559 Z M 345.024902 43.752441 Q 345.261230 43.312012 345.677490 43.075684 Q 346.093750 42.839355 346.641602 42.839355 Q 347.726562 42.839355 348.349609 43.674561 Q 348.972656 44.509766 348.972656 45.976074 Q 348.972656 47.463867 348.346924 48.309814 Q 347.721191 49.155762 346.630859 49.155762 Q 346.093750 49.155762 345.682861 48.922119 Q 345.271973 48.688477 345.024902 48.242676 L 345.024902 49.000000 L 344.036621 49.000000 L 344.036621 40.642578 L 345.024902 40.642578 Z " fill="rgb(0, 0, 0)" fill-opacity="1.000000" />
<path d="M 415.878906 52.319336 L 415.878906 38.300781 L 416.738281 38.300781 L 416.738281 52.319336 Z " fill="rgb(0, 0, 0)" fill-opacity="1.000000" />
<path d="M 128.878906 26.319336 L 128.878906 12.300781 L 129.738281 12.300781 L 129.738281 26.319336 Z " fill="rgb(0, 0, 0)" fill-opacity="1.000000" />
<path d="M 128.878906 39.319336 L 128.878906 25.300781 L 129.738281 25.300781 L 129.738281 39.319336 Z " fill="rgb(0, 0, 0)" fill-opacity="1.000000" />
<path d="M 268.878906 26.319336 L 268.878906 12.300781 L 269.738281 12.300781 L 269.738281 26.319336 Z " fill="rgb(0, 0, 0)" fill-opacity="1.000000" />
<path d="M 268.878906 39.319336 L 268.878906 25.300781 L 269.738281 25.300781 L 269.738281 39.319336 Z " fill="rgb(0, 0, 0)" fill-opacity="1.000000" />
<path d="M 415.878906 26.319336 L 415.878906 12.300781 L 416.738281 12.300781 L 416.738281 26.319336 Z " fill="rgb(0, 0, 0)" fill-opacity="1.000000" />
<path d="M 415.878906 39.319336 L 415.878906 25.300781 L 416.738281 25.300781 L 416.738281 39.319336 Z " fill="rgb(0, 0, 0)" fill-opacity="1.000000" />
<path d="M 6.892578 7.335938 L 6.892578 6.412109 L 13.729980 6.412109 L 13.729980 7.335938 Z " fill="rgb(0, 0, 0)" fill-opacity="1.000000" />
<path d="M 13.892578 7.335938 L 13.892578 6.412109 L 20.729980 6.412109 L 20.729980 7.335938 Z " fill="rgb(0, 0, 0)" fill-opacity="1.000000" />
<path d="M 20.892578 7.335938 L 20.892578 6.412109 L 27.729980 6.412109 L 27.729980 7.335938 Z " fill="rgb(0, 0, 0)" fill-opacity="1.000000" />
<path d="M 27.892578 7.335938 L 27.892578 6.412109 L 34.729980 6.412109 L 34.729980 7.335938 Z " fill="rgb(0, 0, 0)" fill-opacity="1.000000" />
<path d="M 34.892578 7.335938 L 34.892578 6.412109 L 41.729980 6.412109 L 41.729980 7.335938 Z " fill="rgb(0, 0, 0)" fill-opacity="1.000000" />
<path d="M 41.892578 7.335938 L 41.892578 6.412109 L 48.729980 6.412109 L 48.729980 7.335938 Z " fill="rgb(0, 0, 0)" fill-opacity="1.000000" />
<path d="M 48.892578 7.335938 L 48.892578 6.412109 L 55.729980 6.412109 L 55.729980 7.335938 Z " fill="rgb(0, 0, 0)" fill-opacity="1.000000" />
<path d="M 55.892578 7.335938 L 55.892578 6.412109 L 62.729980 6.412109 L 62.729980 7.335938 Z " fill="rgb(0, 0, 0)" fill-opacity="1.000000" />
<path d="M 62.892578 7.335938 L 62.892578 6.412109 L 69.729980 6.412109 L 69.729980 7.335938 Z " fill="rgb(0, 0, 0)" fill-opacity="1.000000" />
<path d="M 69.892578 7.335938 L 69.892578 6.412109 L 76.729980 6.412109 L 76.729980 7.335938 Z " fill="rgb(0, 0, 0)" fill-opacity="1.000000" />
<path d="M 76.892578 7.335938 L 76.892578 6.412109 L 83.729980 6.412109 L 83.729980 7.335938 Z " fill="rgb(0, 0, 0)" fill-opacity="1.000000" />
<path d="M 83.892578 7.335938 L 83.892578 6.412109 L 90.729980 6.412109 L 90.729980 7.335938 Z " fill="rgb(0, 0, 0)" fill-opacity="1.000000" />
<path d="M 90.892578 7.335938 L 90.892578 6.412109 L 97.729980 6.412109 L 97.729980 7.335938 Z " fill="rgb(0, 0, 0)" fill-opacity="1.000000" />
<path d="M 97.892578 7.335938 L 97.892578 6.412109 L 104.729980 6.412109 L 104.729980 7.335938 Z " fill="rgb(0, 0, 0)" fill-opacity="1.000000" />
<path d="M 104.892578 7.335938 L 104.892578 6.412109 L 111.729980 6.412109 L 111.729980 7.335938 Z " fill="rgb(0, 0, 0)" fill-opacity="1.000000" />
<path d="M 111.892578 7.335938 L 111.892578 6.412109 L 118.729980 6.412109 L 118.729980 7.335938 Z " fill="rgb(0, 0, 0)" fill-opacity="1.000000" />
<path d="M 118.892578 7.335938 L 118.892578 6.412109 L 125.729980 6.412109 L 125.729980 7.335938 Z " fill="rgb(0, 0, 0)" fill-opacity="1.000000" />
<path d="M 128.878906 13.319336 L 128.878906 7.335938 L 125.892578 7.335938 L 125.892578 6.412109 L 129.738281 6.412109 L 129.738281 13.319336 Z " fill="rgb(0, 0, 0)" fill-opacity="1.000000" />
<path d="M 268.878906 13.319336 L 268.878906 6.412109 L 272.729980 6.412109 L 272.729980 7.335938 L 269.738281 7.335938 L 269.738281 13.319336 Z " fill="rgb(0, 0, 0)" fill-opacity="1.000000" />
<path d="M 272.892578 7.335938 L 272.892578 6.412109 L 279.729980 6.412109 L 279.729980 7.335938 Z " fill="rgb(0, 0, 0)" fill-opacity="1.000000" />
<path d="M 279.892578 7.335938 L 279.892578 6.412109 L 286.729980 6.412109 L 286.729980 7.335938 Z " fill="rgb(0, 0, 0)" fill-opacity="1.000000" />
<path d="M 286.892578 7.335938 L 286.892578 6.412109 L 293.729980 6.412109 L 293.729980 7.335938 Z " fill="rgb(0, 0, 0)" fill-opacity="1.000000" />
<path d="M 293.892578 7.335938 L 293.892578 6.412109 L 300.729980 6.412109 L 300.729980 7.335938 Z " fill="rgb(0, 0, 0)" fill-opacity="1.000000" />
<path d="M 300.892578 7.335938 L 300.892578 6.412109 L 307.729980 6.412109 L 307.729980 7.335938 Z " fill="rgb(0, 0, 0)" fill-opacity="1.000000" />
<path d="M 307.892578 7.335938 L 307.892578 6.412109 L 314.729980 6.412109 L 314.729980 7.335938 Z " fill="rgb(0, 0, 0)" fill-opacity="1.000000" />
<path d="M 314.892578 7.335938 L 314.892578 6.412109 L 321.729980 6.412109 L 321.729980 7.335938 Z " fill="rgb(0, 0, 0)" fill-opacity="1.000000" />
<path d="M 321.892578 7.335938 L 321.892578 6.412109 L 328.729980 6.412109 L 328.729980 7.335938 Z " fill="rgb(0, 0, 0)" fill-opacity="1.000000" />
<path d="M 328.892578 7.335938 L 328.892578 6.412109 L 335.729980 6.412109 L 335.729980 7.335938 Z " fill="rgb(0, 0, 0)" fill-opacity="1.000000" />
<path d="M 335.892578 7.335938 L 335.892578 6.412109 L 342.729980 6.412109 L 342.729980 7.335938 Z " fill="rgb(0, 0, 0)" fill-opacity="1.000000" />
<path d="M 342.892578 7.335938 L 342.892578 6.412109 L 349.729980 6.412109 L 349.729980 7.335938 Z " fill="rgb(0, 0, 0)" fill-opacity="1.000000" />
<path d="M 349.892578 7.335938 L 349.892578 6.412109 L 356.729980 6.412109 L 356.729980 7.335938 Z " fill="rgb(0, 0, 0)" fill-opacity="1.000000" />
<path d="M 356.892578 7.335938 L 356.892578 6.412109 L 363.729980 6.412109 L 363.729980 7.335938 Z " fill="rgb(0, 0, 0)" fill-opacity="1.000000" />
<path d="M 363.892578 7.335938 L 363.892578 6.412109 L 370.729980 6.412109 L 370.729980 7.335938 Z " fill="rgb(0, 0, 0)" fill-opacity="1.000000" />
<path d="M 370.892578 7.335938 L 370.892578 6.412109 L 377.729980 6.412109 L 377.729980 7.335938 Z " fill="rgb(0, 0, 0)" fill-opacity="1.000000" />
<path d="M 377.892578 7.335938 L 377.892578 6.412109 L 384.729980 6.412109 L 384.729980 7.335938 Z " fill="rgb(0, 0, 0)" fill-opacity="1.000000" />
<path d="M 384.892578 7.335938 L 384.892578 6.412109 L 391.729980 6.412109 L 391.729980 7.335938 Z " fill="rgb(0, 0, 0)" fill-opacity="1.000000" />
<path d="M 391.892578 7.335938 L 391.892578 6.412109 L 398.729980 6.412109 L 398.729980 7.335938 Z " fill="rgb(0, 0, 0)" fill-opacity="1.000000" />
<path d="M 398.892578 7.335938 L 398.892578 6.412109 L 405.729980 6.412109 L 405.729980 7.335938 Z " fill="rgb(0, 0, 0)" fill-opacity="1.000000" />
<path d="M 405.892578 7.335938 L 405.892578 6.412109 L 412.729980 6.412109 L 412.729980 7.335938 Z " fill="rgb(0, 0, 0)" fill-opacity="1.000000" />
<path d="M 415.878906 13.319336 L 415.878906 7.335938 L 412.892578 7.335938 L 412.892578 6.412109 L 416.738281 6.412109 L 416.738281 13.319336 Z " fill="rgb(0, 0, 0)" fill-opacity="1.000000" />
</svg>